<svg xmlns="http://www.w3.org/2000/svg" viewBox="0 0 128 128">
  <g fill="none" stroke-linecap="round" stroke-linejoin="round">
    <path d="M48 19h32" stroke="#7fe7ff" stroke-width="6"/>
    <path d="M54 19v13h20V19" stroke="#7fe7ff" stroke-width="5"/>
    <path d="M38 34h52c5 0 9 4 9 9v59c0 6-5 11-11 11H40c-6 0-11-5-11-11V43c0-5 4-9 9-9z" stroke="#7fe7ff" stroke-width="6"/>
    <path d="M43 86h42" stroke="#7fe7ff" stroke-width="5"/>
    <path d="M49 65c8-15 22-19 34-11" stroke="#ffd97f" stroke-width="5"/>
    <path d="M80 47l5 10-11 2" stroke="#ffd97f" stroke-width="5"/>
    <path d="M79 76c-8 15-22 19-34 11" stroke="#ffd97f" stroke-width="5"/>
    <path d="M48 94l-5-10 11-2" stroke="#ffd97f" stroke-width="5"/>
    <path d="M64 55v33" stroke="#ffd97f" stroke-width="5"/>
  </g>
</svg>
