<svg xmlns="http://www.w3.org/2000/svg" viewBox="0 0 128 128">
  <defs>
    <linearGradient id="voice-case" x1="28" y1="24" x2="102" y2="104" gradientUnits="userSpaceOnUse">
      <stop offset="0" stop-color="#f8ffff"/>
      <stop offset="0.45" stop-color="#7fe7ff"/>
      <stop offset="1" stop-color="#5968ff"/>
    </linearGradient>
    <linearGradient id="ion" x1="32" y1="92" x2="98" y2="30" gradientUnits="userSpaceOnUse">
      <stop offset="0" stop-color="#ffd97f"/>
      <stop offset="0.5" stop-color="#7fffe6"/>
      <stop offset="1" stop-color="#ff6fd8"/>
    </linearGradient>
  </defs>
  <g fill="none" stroke-linecap="round" stroke-linejoin="round">
    <path d="M25 54h15l24-22v64L40 74H25z" stroke="url(#voice-case)" stroke-width="7"/>
    <path d="M76 45c9 8 9 30 0 38" stroke="#7fe7ff" stroke-width="6"/>
    <path d="M88 34c18 16 18 48 0 64" stroke="#d9fbff" stroke-width="5" opacity="0.82"/>
    <path d="M53 49l9 12H50l14 22" stroke="url(#ion)" stroke-width="6"/>
    <circle cx="94" cy="30" r="5" stroke="#ffd97f" stroke-width="4"/>
    <circle cx="103" cy="64" r="6" stroke="#7fffe6" stroke-width="4"/>
    <circle cx="94" cy="98" r="5" stroke="#ff9bdc" stroke-width="4"/>
    <path d="M99 35l-5 24M99 93l-5-24" stroke="#ffd97f" stroke-width="4" opacity="0.75"/>
    <path d="M18 33h19M18 97h19" stroke="#ffd97f" stroke-width="5" opacity="0.9"/>
  </g>
</svg>
