<svg xmlns="http://www.w3.org/2000/svg" viewBox="0 0 128 128" shape-rendering="geometricPrecision">
  <rect width="128" height="128" fill="none"/>
  <g fill="none" stroke-linecap="round" stroke-linejoin="round">
    <path d="M64 18C78 38 78 50 64 62C50 50 50 38 64 18Z" stroke="#efe8ff" stroke-width="6"/>
    <path d="M110 64C90 78 78 78 66 64C78 50 90 50 110 64Z" stroke="#efe8ff" stroke-width="6"/>
    <path d="M64 110C50 90 50 78 64 66C78 78 78 90 64 110Z" stroke="#efe8ff" stroke-width="6"/>
    <path d="M18 64C38 50 50 50 62 64C50 78 38 78 18 64Z" stroke="#efe8ff" stroke-width="6"/>
    <circle cx="64" cy="64" r="9" fill="#ffd66b"/>
  </g>
</svg>
