<svg xmlns="http://www.w3.org/2000/svg" viewBox="0 0 128 128" shape-rendering="geometricPrecision">
  <rect width="128" height="128" fill="none"/>
  <g stroke-linecap="round" stroke-linejoin="round">
    <circle cx="64" cy="64" r="42" fill="none" stroke="#bda7ff" stroke-width="6" opacity="0.9"/>
    <path d="M64 16C74 34 74 48 64 59C54 48 54 34 64 16Z" fill="#efe8ff" stroke="#efe8ff" stroke-width="3"/>
    <path d="M112 64C94 74 80 74 69 64C80 54 94 54 112 64Z" fill="#efe8ff" stroke="#efe8ff" stroke-width="3"/>
    <path d="M64 112C54 94 54 80 64 69C74 80 74 94 64 112Z" fill="#efe8ff" stroke="#efe8ff" stroke-width="3"/>
    <path d="M16 64C34 54 48 54 59 64C48 74 34 74 16 64Z" fill="#efe8ff" stroke="#efe8ff" stroke-width="3"/>
    <path d="M64 36 84 64 64 92 44 64Z" fill="none" stroke="#bda7ff" stroke-width="5"/>
    <circle cx="64" cy="64" r="9" fill="#ffd66b"/>
  </g>
</svg>
